# This file uses centimeters as units for non-parametric coordinates.

mtllib test5.mtl
g default
v 0.423966 0.331586 0.244777
v 0.160211 0.221527 0.277425
v 0.000000 0.103234 0.153304
v -0.160211 0.221527 0.277425
v -0.423966 0.331586 0.244777
v -0.320421 0.221527 -0.000000
v -0.132765 0.103234 -0.076652
v -0.160211 0.221527 -0.277425
v 0.000000 0.331586 -0.489554
v 0.160211 0.221527 -0.277425
v 0.132765 0.103234 -0.076652
v 0.320421 0.221527 -0.000000
v 0.000000 -0.170943 0.000000
v 0.397402 0.361471 0.229433
v 0.159074 0.247476 0.241372
v 0.000000 -0.123640 -0.000001
v -0.000000 0.125247 0.113934
v -0.159074 0.247476 0.241372
v -0.397402 0.361471 0.229433
v -0.288638 0.247476 0.017041
v -0.098674 0.125245 -0.056968
v -0.129556 0.247475 -0.258420
v -0.000000 0.361470 -0.458878
v 0.129556 0.247475 -0.258420
v 0.098674 0.125245 -0.056968
v 0.288638 0.247476 0.017041
vt 0.250000 0.500000
vt 0.291667 0.500000
vt 0.333333 0.500000
vt 0.375000 0.500000
vt 0.416667 0.500000
vt 0.458333 0.500000
vt 0.500000 0.500000
vt 0.541667 0.500000
vt 0.583333 0.500000
vt 0.625000 0.500000
vt 0.666667 0.500000
vt 0.708333 0.500000
vt 0.750000 0.500000
vt 0.500000 1.000000
vt 0.250000 0.500000
vt 0.291667 0.500000
vt 0.500000 1.000000
vt 0.333333 0.500000
vt 0.375000 0.500000
vt 0.416667 0.500000
vt 0.458333 0.500000
vt 0.500000 0.500000
vt 0.541667 0.500000
vt 0.583333 0.500000
vt 0.625000 0.500000
vt 0.666667 0.500000
vt 0.708333 0.500000
vt 0.750000 0.500000
vt 0.250000 0.500000
vt 0.291667 0.500000
vt 0.333333 0.500000
vt 0.375000 0.500000
vt 0.416667 0.500000
vt 0.458333 0.500000
vt 0.500000 0.500000
vt 0.541667 0.500000
vt 0.583333 0.500000
vt 0.625000 0.500000
vt 0.666667 0.500000
vt 0.708333 0.500000
vt 0.750000 0.500000
vn -0.629125 0.687190 -0.363279
vn 0.000000 1.000000 0.000113
vn -0.277949 0.604623 -0.746442
vn -0.000000 0.416236 -0.909257
vn 0.277949 0.604623 -0.746442
vn 0.629125 0.687190 -0.363279
vn 0.785364 0.604749 0.132222
vn 0.787386 0.416248 0.454709
vn 0.507412 0.604649 0.613949
vn 0.000000 0.687192 0.726476
vn -0.507412 0.604649 0.613949
vn -0.787386 0.416248 0.454709
vn -0.785364 0.604749 0.132222
vn 0.620316 -0.697799 0.358168
vn 0.304400 -0.629558 0.714841
vn 0.000000 -1.000000 -0.000103
vn 0.000000 -0.488034 0.872825
vn -0.304400 -0.629558 0.714841
vn -0.620316 -0.697799 0.358168
vn -0.771225 -0.629646 -0.093582
vn -0.755847 -0.488034 -0.436484
vn -0.466838 -0.629570 -0.621051
vn 0.000000 -0.697799 -0.716293
vn 0.466838 -0.629570 -0.621051
vn 0.755847 -0.488034 -0.436484
vn 0.771225 -0.629646 -0.093582
vn -0.202589 0.606915 0.768512
vn -0.202589 0.606915 0.768512
vn -0.202589 0.606915 0.768512
vn -0.202589 0.606915 0.768512
vn -0.728000 0.573490 0.375665
vn -0.728000 0.573490 0.375665
vn -0.728000 0.573490 0.375665
vn -0.728000 0.573490 0.375665
vn 0.728000 0.573490 0.375665
vn 0.728000 0.573490 0.375665
vn 0.728000 0.573490 0.375665
vn 0.728000 0.573490 0.375665
vn 0.202589 0.606915 0.768512
vn 0.202589 0.606915 0.768512
vn 0.202589 0.606915 0.768512
vn 0.202589 0.606915 0.768512
vn -0.564450 0.606875 -0.559552
vn -0.564450 0.606875 -0.559552
vn -0.564450 0.606875 -0.559552
vn -0.564450 0.606875 -0.559552
vn 0.038744 0.573423 -0.818343
vn 0.038744 0.573423 -0.818343
vn 0.038744 0.573423 -0.818343
vn 0.038744 0.573423 -0.818343
vn -0.689316 0.573368 0.442824
vn -0.689316 0.573368 0.442824
vn -0.689316 0.573368 0.442824
vn -0.689316 0.573368 0.442824
vn -0.766794 0.606937 -0.208937
vn -0.766794 0.606937 -0.208937
vn -0.766794 0.606937 -0.208937
vn -0.766794 0.606937 -0.208937
vn 0.766794 0.606937 -0.208937
vn 0.766794 0.606937 -0.208937
vn 0.766794 0.606937 -0.208937
vn 0.766794 0.606937 -0.208937
vn 0.689315 0.573368 0.442824
vn 0.689315 0.573368 0.442824
vn 0.689315 0.573368 0.442824
vn 0.689315 0.573368 0.442824
vn -0.038744 0.573423 -0.818343
vn -0.038744 0.573423 -0.818343
vn -0.038744 0.573423 -0.818343
vn -0.038744 0.573423 -0.818343
vn 0.564450 0.606875 -0.559552
vn 0.564450 0.606875 -0.559552
vn 0.564450 0.606875 -0.559552
vn 0.564450 0.606875 -0.559552
s 1
g pCone2
usemtl initialShadingGroup
f 14/29/1 16/14/2 15/30/3
f 15/30/3 16/14/2 17/31/4
f 17/31/4 16/14/2 18/32/5
f 18/32/5 16/14/2 19/33/6
f 19/33/6 16/14/2 20/34/7
f 20/34/7 16/14/2 21/35/8
f 21/35/8 16/14/2 22/36/9
f 22/36/9 16/14/2 23/37/10
f 23/37/10 16/14/2 24/38/11
f 24/38/11 16/14/2 25/39/12
f 25/39/12 16/14/2 26/40/13
f 26/40/13 16/14/2 14/41/1
s 2
f 1/15/14 2/16/15 13/17/16
f 2/16/15 3/18/17 13/17/16
f 3/18/17 4/19/18 13/17/16
f 4/19/18 5/20/19 13/17/16
f 5/20/19 6/21/20 13/17/16
f 6/21/20 7/22/21 13/17/16
f 7/22/21 8/23/22 13/17/16
f 8/23/22 9/24/23 13/17/16
f 9/24/23 10/25/24 13/17/16
f 10/25/24 11/26/25 13/17/16
f 11/26/25 12/27/26 13/17/16
f 12/27/26 1/28/14 13/17/16
s off
f 1/1/27 14/29/28 15/30/29 2/2/30
f 2/2/31 15/30/32 17/31/33 3/3/34
f 3/3/35 17/31/36 18/32/37 4/4/38
f 4/4/39 18/32/40 19/33/41 5/5/42
f 5/5/43 19/33/44 20/34/45 6/6/46
f 6/6/47 20/34/48 21/35/49 7/7/50
f 7/7/51 21/35/52 22/36/53 8/8/54
f 8/8/55 22/36/56 23/37/57 9/9/58
f 9/9/59 23/37/60 24/38/61 10/10/62
f 10/10/63 24/38/64 25/39/65 11/11/66
f 11/11/67 25/39/68 26/40/69 12/12/70
f 12/12/71 26/40/72 14/41/73 1/13/74
